PathFileType	4	(X/Y/Z)	Patient4_TMGait_0pt3_01_right_17.trc.trc
DataRate	CameraRate	NumFrames	NumMarkers	Units	OrigDataRate	OrigDataStartFrame	OrigNumFrames
52.044609665427	52.044609665427	5	33	mm	52.044609665427	36	       141
Frame#	Time	Sacral			L.Shoulder			Chest			R.Shoulder			Neck			R.ASIS			L.ASIS			R.Thigh.Superior			R.Thigh.Lateral			R.Thigh.Inferior			R.Patella			L.Thigh.Superior			L.Thigh.Lateral			L.Thigh.Inferior			L.Patella			L.Shank.Superior			L.Shank.Lateral			L.Shank.Inferior			R.Shank.Superior			R.Shank.Lateral			R.Shank.Inferior			R.Heel			R.Midfoot.Superior			R.Midfoot.Lateral			R.Toe			L.Heel			L.Midfoot.Lateral			L.Midfoot.Superior			L.Toe			L.Elbow			L.Wrist			R.Elbow			R.Wrist			
		X1	Y1	Z1	X2	Y2	Z2	X3	Y3	Z3	X4	Y4	Z4	X5	Y5	Z5	X6	Y6	Z6	X7	Y7	Z7	X8	Y8	Z8	X9	Y9	Z9	X10	Y10	Z10	X11	Y11	Z11	X12	Y12	Z12	X13	Y13	Z13	X14	Y14	Z14	X15	Y15	Z15	X16	Y16	Z16	X17	Y17	Z17	X18	Y18	Z18	X19	Y19	Z19	X20	Y20	Z20	X21	Y21	Z21	X22	Y22	Z22	X23	Y23	Z23	X24	Y24	Z24	X25	Y25	Z25	X26	Y26	Z26	X27	Y27	Z27	X28	Y28	Z28	X29	Y29	Z29	X30	Y30	Z30	X31	Y31	Z31	X32	Y32	Z32	X33	Y33	Z33	

36	31.332500000000	805.733359954721	1003.482356722309	534.358554633559	1022.570501684924	1436.337847100582	403.347991944471	1081.592463853070	1365.187539114258	583.880115075944	957.058002859629	1436.392513264195	732.092852752886	962.651871028110	1494.018022513994	554.899930448982	1012.277804731592	938.593669696846	691.789799207427	1045.533775627966	961.965812279818	420.289718277174	1075.009778359397	745.956510643745	658.657798525223	997.590110436486	628.173606050878	704.664010255076	1088.289068254224	584.355194925627	632.523499228238	1096.723289515978	493.269557699802	636.889447318896	1060.877834348147	733.443437193769	440.147231627530	963.745211139097	628.822373492068	364.375550220383	1032.334713325007	537.821201945934	429.101017591628	1020.539053859779	459.975447399590	428.121437898398	964.727352239512	401.194710228008	416.581724643369	840.133535403966	329.552528661722	358.800230757113	849.268728913127	201.492696896683	417.981851886292	1063.746277118101	403.823313673129	637.598868519979	985.799407713927	301.270659039382	692.893795057076	1027.177001019183	206.258623512930	629.925233656987	888.726368032854	45.060822506613	590.752316147212	1058.885102163807	97.713387418351	637.259549969463	967.478607939815	37.705505894468	669.290709435174	1176.084729132070	42.504206754863	672.699455991850	678.880565701389	84.829305577231	449.257710266491	750.618205322868	62.921500156958	371.182730231116	845.115875674150	105.071341010004	397.354355079077	956.783948163856	36.009609199900	371.255801811566	1163.914404140955	1133.674073584368	265.233059724699	1418.654403223772	1147.696983689205	307.306155484374	803.463983478960	1119.790441950039	809.180015917890	791.975138918127	860.542384518190	840.229551305342	
37	31.351714285714	805.107325215288	1004.352570462747	540.434101303475	1020.829623974876	1436.995593328925	406.835626711157	1081.935519824677	1365.830720215530	586.677188350120	959.198194223307	1437.020422461766	736.323421398694	962.890953241320	1494.844128425960	558.856843752029	1013.073926378914	939.065126717819	695.799267901399	1043.755556049850	962.709006758581	424.123339419845	1073.464107146551	745.158813136301	662.475132624882	994.494918507079	628.129089329513	707.951568147008	1084.548960948612	583.673449648327	635.521269669323	1091.840172642256	492.785036232432	639.248494224304	1063.452368029812	735.472053904759	444.272930526798	969.449266234968	629.104808152874	368.188888164392	1040.508392888230	539.051779232325	432.682303477658	1029.503796853663	459.921241029847	430.660430382898	971.464860492775	401.679783687735	419.045351114705	844.601083393185	334.382308558953	361.168257008354	850.438078296422	205.583516818398	418.834211082490	1058.773168281218	403.592354211832	639.546196741694	980.665261592261	300.961430958843	694.291171668458	1021.888518177908	206.177486588856	630.758430183045	883.112386680506	45.094148365255	590.852671818273	1053.272101854678	97.641026901840	637.419429697300	961.881463519248	37.698864511031	669.365687836864	1170.499123820389	42.208824150268	672.882232754982	676.338389275778	95.474166535970	449.277163174124	747.088334512642	70.393900724310	371.256843921152	843.295370074367	108.247812711544	397.369363544836	951.115834980037	35.298339571749	371.506873037362	1156.883722342267	1130.629371007157	269.478445606565	1412.684751850536	1138.291858275979	308.513675421199	809.499295625339	1118.866354103679	817.626641590840	803.758722873673	859.684999465644	850.450375301562	
38	31.370928571429	804.220785284944	1005.100907058293	546.344604088698	1018.752447344089	1437.565504094216	410.096162998158	1081.978297267310	1366.352577723048	589.189229799348	961.106104319703	1437.473077816438	740.317023117403	962.915314711666	1495.565766818895	562.617633602312	1013.658175980958	939.457876802524	699.553085477688	1041.633308646760	963.348191940553	427.688557075173	1071.719103325246	744.362383988754	665.996889924543	991.301344796615	628.063415495350	711.042695568788	1080.660775459823	582.989462269723	638.286302754710	1086.810482357808	492.307833088681	641.429409212571	1066.055590307846	737.677153389613	448.385968472800	975.506750762719	629.450889372955	371.982446616541	1048.959138349655	540.563956217396	436.507512457720	1038.798599144822	460.171978436213	433.518372076508	978.693651069148	402.344973225435	421.704412089619	849.717346178603	339.472630380960	363.637679207476	852.085530485318	210.069924739542	419.913017145839	1053.686721963431	403.361143022680	641.373267058566	975.414097492213	300.658047327780	695.595739843441	1016.519525955477	206.098034610047	631.546960570141	877.432264316540	45.114303516089	590.940189532592	1047.610501527013	97.562285163459	637.554585741204	956.221415841779	37.691597688760	669.442165786228	1164.844705767123	41.958990892033	673.031582446883	674.330757455583	106.804270583635	449.440813753579	744.022757792825	78.716164952649	371.420721138595	841.870601949508	112.009760499255	397.607140544038	945.652092585004	34.652099965799	371.757998063754	1148.707423254659	1127.122436901796	273.639572091422	1405.414464962935	1126.993991354438	309.635651117495	816.010042881621	1117.513038260206	825.979723315858	816.702062136432	858.511845120389	860.541264501472	
39	31.390142857143	803.094088735893	1005.691926360649	552.097229693571	1016.338603684453	1438.017804308395	413.119557672278	1081.711784602016	1366.730383848516	591.408212539669	962.760407903363	1437.734889385209	744.049101722767	962.718078987923	1496.152899759619	566.164847738249	1014.047420223891	939.762435408902	703.036896898667	1039.179082579584	963.855000968295	430.978205694190	1069.866477733552	743.581692604290	669.190484284772	988.141575480167	627.959913009230	713.914989325450	1076.756352490188	582.305311044339	640.777991473741	1081.800206631161	491.814773120152	643.390284247692	1068.597211875512	740.038702503023	452.483045250483	981.754571148814	629.886264778270	375.770596591781	1057.468112086323	542.364213569205	440.597165688582	1048.222850666588	460.746246674360	436.724480482454	986.248404877690	403.200109064856	424.576328932941	855.339245343707	344.723255322409	366.247896420793	854.191937210518	214.833647291908	421.248158484493	1048.613672592624	403.104794426627	643.042731142751	970.153165494375	300.356944450998	696.792110922918	1011.118488926297	206.003290562622	632.267547731310	871.684148421706	45.121986827616	591.020289984191	1041.901362717477	97.484229262534	637.667368365897	950.497138578880	37.687111104315	669.528356839703	1159.123095894043	41.756226645417	673.148180405844	672.965588794855	118.412806858387	449.812965315614	741.570349104804	87.628760812365	371.714680810854	840.931586847935	116.283189144732	398.087018831618	940.647194016850	34.144799420820	371.960322116931	1139.455270082226	1123.224344107227	277.706667572178	1396.729370040237	1113.690589372008	310.736611120036	823.040118388028	1115.714295948705	834.146284169574	830.923110371401	857.043876266664	870.383975175261	
40	31.409357142857	801.742723442684	1006.097262419911	557.699161089025	1013.591298373734	1438.321319524482	415.898499330234	1081.138021545425	1366.942754418789	593.328512644385	964.162906344841	1437.803363080961	747.501022106484	962.300350521818	1496.579416948263	569.482242649564	1014.253900986791	939.969801005536	706.244108472501	1036.407758142877	964.209708719188	433.993691017441	1067.987140265457	742.823215380891	672.040134282418	985.128509903600	627.795981062466	716.551642976829	1072.956079942272	581.619300985922	642.967033929688	1076.964779841159	491.279351225141	645.097473237024	1070.986477909107	742.535493752565	456.557398463049	988.028050668262	630.433449782516	379.559138363401	1065.832827155153	544.448795316357	444.942476026381	1057.596773209444	461.652913427957	440.270101423358	993.980383998680	404.248640196511	427.653187217471	861.335090502472	349.999600763264	369.029962797346	856.786928889705	219.709735162512	422.846778171980	1043.668902930984	402.796663341243	644.523411383367	964.979581201193	300.051293062006	697.865908835203	1005.732249829221	205.875949361213	632.899551986802	865.875735546972	45.115945664836	591.095367350988	1036.152048272918	97.415510112363	637.762724657603	944.715706833277	37.687396326172	669.631004230494	1153.342901573246	41.602645455384	673.234607160867	672.402820526462	129.793261266017	450.459281775148	739.935085017054	96.762291498772	372.178916836374	840.635739819858	120.919173169352	398.805520048540	936.448397625915	33.863950139521	372.060554018311	1129.233994387290	1119.015147917020	281.682596480016	1386.502266010793	1098.311286962306	311.874685414150	830.633113639828	1113.486896838747	842.036764921532	846.536352446818	855.350445973662	879.848143966668	
